<?xml version="1.0" encoding="UTF-8" standalone="no"?>
<!DOCTYPE svg PUBLIC "-//W3C//DTD SVG 1.1//EN"
 "http://www.w3.org/Graphics/SVG/1.1/DTD/svg11.dtd">
<!-- Generated by graphviz version 2.38.0 (20140413.2041)
 -->
<!-- Title: G Pages: 1 -->
<svg width="918pt" height="415pt"
 viewBox="0.00 0.00 918.00 415.00" xmlns="http://www.w3.org/2000/svg" xmlns:xlink="http://www.w3.org/1999/xlink">
<g id="graph0" class="graph" transform="scale(1 1) rotate(0) translate(4 411)">
<title>G</title>
<polygon fill="white" stroke="none" points="-4,4 -4,-411 914,-411 914,4 -4,4"/>
<g id="clust1" class="cluster"><title>cluster_0</title>
<polygon fill="none" stroke="black" points="20,-8 20,-156 902,-156 902,-8 20,-8"/>
<text text-anchor="middle" x="461" y="-140.8" font-family="Times,serif" font-size="14.00">Molecule</text>
</g>
<!-- Delib::PositionCollection -->
<g id="node1" class="node"><title>Delib::PositionCollection</title>
<ellipse fill="none" stroke="black" cx="793" cy="-107" rx="100.983" ry="18"/>
<text text-anchor="middle" x="793" y="-103.3" font-family="Times,serif" font-size="14.00">Delib::PositionCollection</text>
</g>
<!-- Molecule -->
<g id="node2" class="node"><title>Molecule</title>
<ellipse fill="none" stroke="black" cx="295" cy="-34" rx="44.393" ry="18"/>
<text text-anchor="middle" x="295" y="-30.3" font-family="Times,serif" font-size="14.00">Molecule</text>
</g>
<!-- Delib::PositionCollection&#45;&gt;Molecule -->
<g id="edge1" class="edge"><title>Delib::PositionCollection&#45;&gt;Molecule</title>
<path fill="none" stroke="black" d="M720.323,-94.4913C708.198,-92.6212 695.748,-90.7314 684,-89 563.206,-71.1974 421.059,-51.8776 346.54,-41.8746"/>
<polygon fill="black" stroke="black" points="346.86,-38.3862 336.484,-40.5261 345.93,-45.3241 346.86,-38.3862"/>
</g>
<!-- DistanceBoundsMatrix -->
<g id="node7" class="node"><title>DistanceBoundsMatrix</title>
<ellipse fill="none" stroke="black" cx="173" cy="-389" rx="92.8835" ry="18"/>
<text text-anchor="middle" x="173" y="-385.3" font-family="Times,serif" font-size="14.00">DistanceBoundsMatrix</text>
</g>
<!-- Molecule&#45;&gt;DistanceBoundsMatrix -->
<g id="edge6" class="edge"><title>Molecule&#45;&gt;DistanceBoundsMatrix</title>
<path fill="none" stroke="black" d="M251.154,-36.5005C168.976,-40.5131 0,-54.9684 0,-106 0,-303 0,-303 0,-303 0,-345.067 41.715,-366.316 84.1769,-377.049"/>
<polygon fill="black" stroke="black" points="83.5593,-380.499 94.0938,-379.371 85.1549,-373.683 83.5593,-380.499"/>
<text text-anchor="middle" x="32.5" y="-211.3" font-family="Times,serif" font-size="14.00">constr. coll.</text>
</g>
<!-- Delib::ElementTypeCollection -->
<g id="node3" class="node"><title>Delib::ElementTypeCollection</title>
<ellipse fill="none" stroke="black" cx="555" cy="-107" rx="119.679" ry="18"/>
<text text-anchor="middle" x="555" y="-103.3" font-family="Times,serif" font-size="14.00">Delib::ElementTypeCollection</text>
</g>
<!-- Delib::ElementTypeCollection&#45;&gt;Molecule -->
<g id="edge2" class="edge"><title>Delib::ElementTypeCollection&#45;&gt;Molecule</title>
<path fill="none" stroke="black" d="M499.861,-90.9427C452.465,-78.0002 384.932,-59.5584 340.55,-47.4386"/>
<polygon fill="black" stroke="black" points="341.465,-44.0604 330.896,-44.8024 339.621,-50.8131 341.465,-44.0604"/>
</g>
<!-- AdjacencyList -->
<g id="node4" class="node"><title>AdjacencyList</title>
<ellipse fill="none" stroke="black" cx="356" cy="-107" rx="61.99" ry="18"/>
<text text-anchor="middle" x="356" y="-103.3" font-family="Times,serif" font-size="14.00">AdjacencyList</text>
</g>
<!-- AdjacencyList&#45;&gt;Molecule -->
<g id="edge3" class="edge"><title>AdjacencyList&#45;&gt;Molecule</title>
<path fill="none" stroke="black" d="M341.544,-89.174C333.76,-80.114 324.027,-68.7854 315.476,-58.8333"/>
<polygon fill="black" stroke="black" points="318.104,-56.5207 308.932,-51.2165 312.794,-61.0824 318.104,-56.5207"/>
</g>
<!-- EdgeList -->
<g id="node5" class="node"><title>EdgeList</title>
<ellipse fill="none" stroke="black" cx="234" cy="-107" rx="42.4939" ry="18"/>
<text text-anchor="middle" x="234" y="-103.3" font-family="Times,serif" font-size="14.00">EdgeList</text>
</g>
<!-- EdgeList&#45;&gt;Molecule -->
<g id="edge4" class="edge"><title>EdgeList&#45;&gt;Molecule</title>
<path fill="none" stroke="black" d="M247.842,-89.889C255.608,-80.8496 265.453,-69.3907 274.137,-59.2837"/>
<polygon fill="black" stroke="black" points="276.928,-61.4059 280.79,-51.54 271.618,-56.8441 276.928,-61.4059"/>
</g>
<!-- GraphFeatureList -->
<g id="node6" class="node"><title>GraphFeatureList</title>
<ellipse fill="none" stroke="black" cx="101" cy="-107" rx="72.5877" ry="18"/>
<text text-anchor="middle" x="101" y="-103.3" font-family="Times,serif" font-size="14.00">GraphFeatureList</text>
</g>
<!-- GraphFeatureList&#45;&gt;Molecule -->
<g id="edge5" class="edge"><title>GraphFeatureList&#45;&gt;Molecule</title>
<path fill="none" stroke="black" d="M140.259,-91.6321C173.211,-79.5724 220.14,-62.3971 253.663,-50.1285"/>
<polygon fill="black" stroke="black" points="254.984,-53.3721 263.172,-46.6484 252.578,-46.7985 254.984,-53.3721"/>
</g>
<!-- MetricMatrix -->
<g id="node8" class="node"><title>MetricMatrix</title>
<ellipse fill="none" stroke="black" cx="659" cy="-302" rx="59.2899" ry="18"/>
<text text-anchor="middle" x="659" y="-298.3" font-family="Times,serif" font-size="14.00">MetricMatrix</text>
</g>
<!-- DistanceBoundsMatrix&#45;&gt;MetricMatrix -->
<g id="edge7" class="edge"><title>DistanceBoundsMatrix&#45;&gt;MetricMatrix</title>
<path fill="none" stroke="black" d="M239.557,-376.359C334.65,-359.728 507.956,-329.417 599.183,-313.462"/>
<polygon fill="black" stroke="black" points="599.841,-316.9 609.089,-311.729 598.635,-310.005 599.841,-316.9"/>
<text text-anchor="middle" x="474" y="-341.8" font-family="Times,serif" font-size="14.00">part. metr.</text>
</g>
<!-- Collection4D -->
<g id="node9" class="node"><title>Collection4D</title>
<ellipse fill="none" stroke="black" cx="793" cy="-215" rx="57.6901" ry="18"/>
<text text-anchor="middle" x="793" y="-211.3" font-family="Times,serif" font-size="14.00">Collection4D</text>
</g>
<!-- MetricMatrix&#45;&gt;Collection4D -->
<g id="edge8" class="edge"><title>MetricMatrix&#45;&gt;Collection4D</title>
<path fill="none" stroke="black" d="M683.578,-285.41C705.017,-271.81 736.3,-251.966 759.932,-236.976"/>
<polygon fill="black" stroke="black" points="762.009,-239.804 768.578,-231.491 758.259,-233.892 762.009,-239.804"/>
<text text-anchor="middle" x="752.5" y="-254.8" font-family="Times,serif" font-size="14.00">embed</text>
</g>
<!-- Collection3D -->
<g id="node10" class="node"><title>Collection3D</title>
<ellipse fill="none" stroke="black" cx="659" cy="-215" rx="57.6901" ry="18"/>
<text text-anchor="middle" x="659" y="-211.3" font-family="Times,serif" font-size="14.00">Collection3D</text>
</g>
<!-- MetricMatrix&#45;&gt;Collection3D -->
<g id="edge9" class="edge"><title>MetricMatrix&#45;&gt;Collection3D</title>
<path fill="none" stroke="black" d="M659,-283.799C659,-272.163 659,-256.548 659,-243.237"/>
<polygon fill="black" stroke="black" points="662.5,-243.175 659,-233.175 655.5,-243.175 662.5,-243.175"/>
<text text-anchor="middle" x="677.5" y="-254.8" font-family="Times,serif" font-size="14.00">embed</text>
</g>
<!-- Collection4D&#45;&gt;Delib::PositionCollection -->
<g id="edge10" class="edge"><title>Collection4D&#45;&gt;Delib::PositionCollection</title>
<path fill="none" stroke="black" d="M793,-196.969C793,-180.378 793,-154.883 793,-135.431"/>
<polygon fill="black" stroke="black" points="796.5,-135.341 793,-125.341 789.5,-135.341 796.5,-135.341"/>
<text text-anchor="middle" x="809" y="-167.8" font-family="Times,serif" font-size="14.00">refine</text>
</g>
<!-- Collection3D&#45;&gt;Delib::PositionCollection -->
<g id="edge11" class="edge"><title>Collection3D&#45;&gt;Delib::PositionCollection</title>
<path fill="none" stroke="black" d="M679.352,-197.901C701.814,-180.132 738.163,-151.379 763.691,-131.185"/>
<polygon fill="black" stroke="black" points="765.897,-133.903 771.568,-124.954 761.554,-128.413 765.897,-133.903"/>
<text text-anchor="middle" x="737" y="-167.8" font-family="Times,serif" font-size="14.00">refine</text>
</g>
</g>
</svg>
