<?xml version="1.0" encoding="UTF-8" standalone="no"?>
<!DOCTYPE svg PUBLIC "-//W3C//DTD SVG 1.1//EN"
 "http://www.w3.org/Graphics/SVG/1.1/DTD/svg11.dtd">
<!-- Generated by graphviz version 2.38.0 (20140413.2041)
 -->
<!-- Title: G Pages: 1 -->
<svg width="594pt" height="415pt"
 viewBox="0.00 0.00 594.00 415.00" xmlns="http://www.w3.org/2000/svg" xmlns:xlink="http://www.w3.org/1999/xlink">
<g id="graph0" class="graph" transform="scale(1 1) rotate(0) translate(4 411)">
<title>G</title>
<polygon fill="white" stroke="none" points="-4,4 -4,-411 590,-411 590,4 -4,4"/>
<g id="clust1" class="cluster"><title>cluster_0</title>
<polygon fill="none" stroke="black" points="20,-8 20,-156 578,-156 578,-8 20,-8"/>
<text text-anchor="middle" x="299" y="-140.8" font-family="Times,serif" font-size="14.00">Molecule</text>
</g>
<!-- Delib::AtomSet -->
<g id="node1" class="node"><title>Delib::AtomSet</title>
<ellipse fill="none" stroke="black" cx="503" cy="-107" rx="66.8882" ry="18"/>
<text text-anchor="middle" x="503" y="-103.3" font-family="Times,serif" font-size="14.00">Delib::AtomSet</text>
</g>
<!-- Molecule -->
<g id="node2" class="node"><title>Molecule</title>
<ellipse fill="none" stroke="black" cx="234" cy="-34" rx="44.393" ry="18"/>
<text text-anchor="middle" x="234" y="-30.3" font-family="Times,serif" font-size="14.00">Molecule</text>
</g>
<!-- Delib::AtomSet&#45;&gt;Molecule -->
<g id="edge1" class="edge"><title>Delib::AtomSet&#45;&gt;Molecule</title>
<path fill="none" stroke="black" d="M457.063,-93.8753C407.647,-80.8325 329.519,-60.2114 280.057,-47.1563"/>
<polygon fill="black" stroke="black" points="280.823,-43.7387 270.261,-44.5708 279.037,-50.507 280.823,-43.7387"/>
</g>
<!-- DistanceBoundsMatrix -->
<g id="node6" class="node"><title>DistanceBoundsMatrix</title>
<ellipse fill="none" stroke="black" cx="100" cy="-389" rx="92.8835" ry="18"/>
<text text-anchor="middle" x="100" y="-385.3" font-family="Times,serif" font-size="14.00">DistanceBoundsMatrix</text>
</g>
<!-- Molecule&#45;&gt;DistanceBoundsMatrix -->
<g id="edge5" class="edge"><title>Molecule&#45;&gt;DistanceBoundsMatrix</title>
<path fill="none" stroke="black" d="M191.353,-39.1353C123.859,-46.8752 0,-66.4648 0,-106 0,-303 0,-303 0,-303 0,-332.656 25.8486,-354.128 51.2622,-368.073"/>
<polygon fill="black" stroke="black" points="49.7,-371.205 60.19,-372.692 52.9169,-364.988 49.7,-371.205"/>
<text text-anchor="middle" x="32.5" y="-211.3" font-family="Times,serif" font-size="14.00">constr. coll.</text>
</g>
<!-- AdjacencyList -->
<g id="node3" class="node"><title>AdjacencyList</title>
<ellipse fill="none" stroke="black" cx="356" cy="-107" rx="61.99" ry="18"/>
<text text-anchor="middle" x="356" y="-103.3" font-family="Times,serif" font-size="14.00">AdjacencyList</text>
</g>
<!-- AdjacencyList&#45;&gt;Molecule -->
<g id="edge2" class="edge"><title>AdjacencyList&#45;&gt;Molecule</title>
<path fill="none" stroke="black" d="M329.528,-90.5941C311.257,-79.9611 286.824,-65.742 267.242,-54.3459"/>
<polygon fill="black" stroke="black" points="268.751,-51.1743 258.347,-49.1693 265.23,-57.2243 268.751,-51.1743"/>
</g>
<!-- EdgeList -->
<g id="node4" class="node"><title>EdgeList</title>
<ellipse fill="none" stroke="black" cx="234" cy="-107" rx="42.4939" ry="18"/>
<text text-anchor="middle" x="234" y="-103.3" font-family="Times,serif" font-size="14.00">EdgeList</text>
</g>
<!-- EdgeList&#45;&gt;Molecule -->
<g id="edge3" class="edge"><title>EdgeList&#45;&gt;Molecule</title>
<path fill="none" stroke="black" d="M234,-88.8129C234,-80.7895 234,-71.0475 234,-62.0691"/>
<polygon fill="black" stroke="black" points="237.5,-62.0288 234,-52.0288 230.5,-62.0289 237.5,-62.0288"/>
</g>
<!-- GraphFeatureList -->
<g id="node5" class="node"><title>GraphFeatureList</title>
<ellipse fill="none" stroke="black" cx="101" cy="-107" rx="72.5877" ry="18"/>
<text text-anchor="middle" x="101" y="-103.3" font-family="Times,serif" font-size="14.00">GraphFeatureList</text>
</g>
<!-- GraphFeatureList&#45;&gt;Molecule -->
<g id="edge4" class="edge"><title>GraphFeatureList&#45;&gt;Molecule</title>
<path fill="none" stroke="black" d="M130.187,-90.4187C150.437,-79.609 177.51,-65.1562 198.932,-53.7204"/>
<polygon fill="black" stroke="black" points="200.857,-56.6603 208.031,-48.8633 197.561,-50.4851 200.857,-56.6603"/>
</g>
<!-- MetricMatrix -->
<g id="node7" class="node"><title>MetricMatrix</title>
<ellipse fill="none" stroke="black" cx="369" cy="-302" rx="59.2899" ry="18"/>
<text text-anchor="middle" x="369" y="-298.3" font-family="Times,serif" font-size="14.00">MetricMatrix</text>
</g>
<!-- DistanceBoundsMatrix&#45;&gt;MetricMatrix -->
<g id="edge6" class="edge"><title>DistanceBoundsMatrix&#45;&gt;MetricMatrix</title>
<path fill="none" stroke="black" d="M146.549,-373.291C194.944,-357.999 270.39,-334.159 319.759,-318.559"/>
<polygon fill="black" stroke="black" points="321.094,-321.808 329.574,-315.458 318.985,-315.134 321.094,-321.808"/>
<text text-anchor="middle" x="279" y="-341.8" font-family="Times,serif" font-size="14.00">part. metr.</text>
</g>
<!-- Collection4D -->
<g id="node8" class="node"><title>Collection4D</title>
<ellipse fill="none" stroke="black" cx="503" cy="-215" rx="57.6901" ry="18"/>
<text text-anchor="middle" x="503" y="-211.3" font-family="Times,serif" font-size="14.00">Collection4D</text>
</g>
<!-- MetricMatrix&#45;&gt;Collection4D -->
<g id="edge7" class="edge"><title>MetricMatrix&#45;&gt;Collection4D</title>
<path fill="none" stroke="black" d="M393.578,-285.41C415.017,-271.81 446.3,-251.966 469.932,-236.976"/>
<polygon fill="black" stroke="black" points="472.009,-239.804 478.578,-231.491 468.259,-233.892 472.009,-239.804"/>
<text text-anchor="middle" x="462.5" y="-254.8" font-family="Times,serif" font-size="14.00">embed</text>
</g>
<!-- Collection3D -->
<g id="node9" class="node"><title>Collection3D</title>
<ellipse fill="none" stroke="black" cx="369" cy="-215" rx="57.6901" ry="18"/>
<text text-anchor="middle" x="369" y="-211.3" font-family="Times,serif" font-size="14.00">Collection3D</text>
</g>
<!-- MetricMatrix&#45;&gt;Collection3D -->
<g id="edge8" class="edge"><title>MetricMatrix&#45;&gt;Collection3D</title>
<path fill="none" stroke="black" d="M369,-283.799C369,-272.163 369,-256.548 369,-243.237"/>
<polygon fill="black" stroke="black" points="372.5,-243.175 369,-233.175 365.5,-243.175 372.5,-243.175"/>
<text text-anchor="middle" x="387.5" y="-254.8" font-family="Times,serif" font-size="14.00">embed</text>
</g>
<!-- Collection4D&#45;&gt;Delib::AtomSet -->
<g id="edge9" class="edge"><title>Collection4D&#45;&gt;Delib::AtomSet</title>
<path fill="none" stroke="black" d="M503,-196.969C503,-180.378 503,-154.883 503,-135.431"/>
<polygon fill="black" stroke="black" points="506.5,-135.341 503,-125.341 499.5,-135.341 506.5,-135.341"/>
<text text-anchor="middle" x="519" y="-167.8" font-family="Times,serif" font-size="14.00">refine</text>
</g>
<!-- Collection3D&#45;&gt;Delib::AtomSet -->
<g id="edge10" class="edge"><title>Collection3D&#45;&gt;Delib::AtomSet</title>
<path fill="none" stroke="black" d="M389.352,-197.901C412.078,-179.923 449.02,-150.701 474.588,-130.475"/>
<polygon fill="black" stroke="black" points="476.785,-133.2 482.457,-124.251 472.442,-127.71 476.785,-133.2"/>
<text text-anchor="middle" x="447" y="-167.8" font-family="Times,serif" font-size="14.00">refine</text>
</g>
</g>
</svg>
