<?xml version="1.0" encoding="UTF-8" standalone="no"?>
<!-- Created with Inkscape (http://www.inkscape.org/) -->

<svg
   xmlns:dc="http://purl.org/dc/elements/1.1/"
   xmlns:cc="http://creativecommons.org/ns#"
   xmlns:rdf="http://www.w3.org/1999/02/22-rdf-syntax-ns#"
   xmlns:svg="http://www.w3.org/2000/svg"
   xmlns="http://www.w3.org/2000/svg"
   xmlns:sodipodi="http://sodipodi.sourceforge.net/DTD/sodipodi-0.dtd"
   xmlns:inkscape="http://www.inkscape.org/namespaces/inkscape"
   width="175.59076mm"
   height="175.59076mm"
   viewBox="0 0 175.59076 175.59076"
   version="1.1"
   id="svg1114"
   inkscape:version="0.92.4 (5da689c313, 2019-01-14)"
   sodipodi:docname="spaced.svg">
  <defs
     id="defs1108" />
  <sodipodi:namedview
     id="base"
     pagecolor="#ffffff"
     bordercolor="#666666"
     borderopacity="1.0"
     inkscape:pageopacity="0.0"
     inkscape:pageshadow="2"
     inkscape:zoom="1.8152578"
     inkscape:cx="559.86461"
     inkscape:cy="296.91906"
     inkscape:document-units="mm"
     inkscape:current-layer="layer1"
     showgrid="false"
     fit-margin-top="10"
     fit-margin-left="10"
     fit-margin-bottom="10"
     fit-margin-right="10"
     inkscape:window-width="3840"
     inkscape:window-height="2132"
     inkscape:window-x="0"
     inkscape:window-y="0"
     inkscape:window-maximized="1" />
  <metadata
     id="metadata1111">
    <rdf:RDF>
      <cc:Work
         rdf:about="">
        <dc:format>image/svg+xml</dc:format>
        <dc:type
           rdf:resource="http://purl.org/dc/dcmitype/StillImage" />
        <dc:title />
      </cc:Work>
    </rdf:RDF>
  </metadata>
  <g
     inkscape:label="Layer 1"
     inkscape:groupmode="layer"
     id="layer1"
     transform="translate(294.20921,-40.891055)">
    <rect
       style="opacity:1;fill:#ffffff;fill-opacity:1;stroke:#ff8080;stroke-width:2;stroke-linecap:round;stroke-linejoin:round;stroke-miterlimit:4;stroke-dasharray:none;stroke-opacity:1"
       id="rect839"
       width="275.33163"
       height="235.83197"
       x="-313.15738"
       y="24.084904" />
    <path
       style="opacity:1;fill:#c6e9af;fill-opacity:1;stroke:#c6e9af;stroke-width:0.5;stroke-linecap:round;stroke-linejoin:round;stroke-miterlimit:4;stroke-dasharray:none;stroke-opacity:1"
       d="m -275.11201,155.42098 c -3.05882,-7.79104 -4.73472,-16.17666 -4.97575,-24.89698 -0.69496,-25.14245 11.73078,-49.09895 32.74274,-63.12729 9.99707,-6.67439 21.13672,-10.68378 33.54933,-12.07509 2.88615,-0.3235 11.19124,-0.37449 13.97889,-0.0858 9.5867,0.99272 17.7261,3.29727 25.99317,7.35956 9.80363,4.81732 18.39902,11.76182 25.25212,20.40201 8.05156,10.15114 13.33685,22.53127 15.16084,35.51234 0.47665,3.39216 0.91429,9.80432 0.64982,9.52076 -0.0775,-0.0831 -1.11123,-1.2608 -2.29714,-2.61707 -2.44782,-2.79944 -6.62668,-7.05895 -9.26756,-9.44638 -15.72454,-14.2155 -33.21074,-22.47319 -51.57518,-24.35584 -3.77529,-0.38703 -7.94279,-0.06 -11.46556,0.8997 -3.27581,0.89243 -5.85489,2.20977 -9.39091,4.79667 -3.66239,2.67934 -5.36501,2.77867 -11.21691,0.65437 -5.40324,-1.96143 -8.41899,-2.38861 -11.78845,-1.66984 -5.89659,1.25784 -10.92153,5.67338 -12.1275,10.65672 -0.32655,1.34939 -0.23733,3.50578 0.20013,4.83593 0.41987,1.27675 2.99413,7.20415 4.64442,10.69413 l 1.09082,2.3068 -0.31692,1.57463 c -1.61186,8.00871 -6.38627,14.53271 -15.65677,21.39423 -1.08053,0.79975 -3.84762,2.75493 -6.14907,4.34486 -2.30145,1.58992 -4.69501,3.26835 -5.31903,3.72984 -0.62404,0.46149 -1.15522,0.83882 -1.18041,0.83852 -0.0251,-2.6e-4 -0.26601,-0.56134 -0.53512,-1.24676 z"
       id="path3769-5"
       inkscape:connector-curvature="0" />
    <path
       style="fill:none;fill-rule:evenodd;stroke:#333333;stroke-width:4;stroke-linecap:round;stroke-linejoin:round;stroke-miterlimit:4;stroke-dasharray:none;stroke-opacity:1"
       d="m -274.77461,159.48925 c 11.02395,-8.90661 28.52516,-16.00691 30.93231,-35.10093 -2.15966,-4.42048 -2.45033,-5.13541 -5.6036,-12.4092 -3.15326,-7.27379 6.47514,-14.94275 14.28163,-13.86967 7.80649,1.07308 12.41041,6.56018 19.55848,0.94311 7.14807,-5.61711 13.27091,-5.44562 17.61039,-5.56632 39.0889,3.0043 62.80057,34.77279 67.19085,40.3089"
       id="path947-6-7-2-3"
       inkscape:connector-curvature="0"
       sodipodi:nodetypes="cczzzcc" />
    <path
       sodipodi:nodetypes="zzzzzzzzzzz"
       inkscape:connector-curvature="0"
       id="path888-3-5-3-2-4-9-7-4"
       d="m -217.94444,177.09712 c 1.80369,4.65287 4.12722,5.25664 8.57857,4.01179 4.45135,-1.24486 6.7486,-1.3667 9.66133,-0.99174 2.91273,0.37496 5.32049,0.48084 7.50215,-1.73218 2.18166,-2.21303 3.06805,-3.90757 5.86165,-8.72485 2.7936,-4.81726 6.01592,-17.43141 5.48288,-20.92404 -0.53304,-3.49263 -3.0742,-6.21359 -8.34301,-4.53698 -5.26881,1.67659 -21.70422,-3.9266 -25.3871,-4.72651 -3.68288,-0.79992 -7.72045,2.26479 -5.32199,6.39499 2.39846,4.1302 3.70533,11.40649 3.16918,15.83173 -0.53615,4.42525 -3.00735,10.74493 -1.20366,15.39779 z"
       style="display:inline;fill:#333333;fill-opacity:1;fill-rule:evenodd;stroke:#333333;stroke-width:3;stroke-linecap:butt;stroke-linejoin:miter;stroke-miterlimit:4;stroke-dasharray:none;stroke-opacity:1" />
    <path
       sodipodi:nodetypes="ccccsscc"
       inkscape:connector-curvature="0"
       id="path890-6-2-8-8-6-1-7"
       d="m -199.84747,167.51908 c -0.85228,0.41023 -2.14701,0.56698 -3.50499,0.19436 -4.27125,-1.75229 -2.58783,-4.47743 -3.68807,-7.5106 -0.78587,-1.98315 -1.76774,-5.02208 -0.90802,-6.68819 0.88486,-1.60404 2.47521,-2.11843 5.00076,-2.27932 2.04643,-0.13035 3.86417,0.53403 6.99367,0.19814 1.93765,-0.20795 3.82875,-0.98999 5.96057,0.0601 7.21002,4.88064 -5.75642,14.04633 -9.85392,16.02549 z"
       style="display:inline;fill:#e8c1c6;fill-opacity:1;fill-rule:evenodd;stroke:#e8c1c6;stroke-width:3;stroke-linecap:butt;stroke-linejoin:miter;stroke-miterlimit:4;stroke-dasharray:none;stroke-opacity:1" />
    <path
       style="opacity:1;fill:#333333;fill-opacity:1;stroke:#333333;stroke-width:2.09470844;stroke-linecap:round;stroke-linejoin:round;stroke-miterlimit:4;stroke-dasharray:none"
       d="m -209.84636,202.34303 c -1.50189,-0.066 -5.37968,-0.43906 -6.99543,-0.67303 -12.17319,-1.76273 -23.815,-6.56872 -33.60154,-13.87143 -2.96959,-2.21591 -5.0718,-4.05171 -8.04953,-7.02944 -4.87667,-4.87667 -8.59572,-9.69691 -11.82434,-15.32549 -1.21348,-2.11551 -2.5908,-4.80873 -2.50029,-4.88909 0.38412,-0.34101 3.93491,-2.8725 6.64803,-4.7396 5.57054,-3.8335 8.46143,-5.95767 10.71781,-7.87523 5.83949,-4.96265 9.74438,-10.17895 11.80283,-15.76668 l 0.54289,-1.4737 1.54361,3.00678 c 2.85001,5.55148 3.92773,7.06878 7.73259,10.88657 1.44302,1.44792 2.91518,2.98278 3.27148,3.41081 2.68925,3.23064 4.06532,7.62897 3.83134,12.24604 -0.0919,1.81331 -0.2877,2.98794 -0.99239,5.95337 -0.7499,3.15573 -0.83174,3.81884 -0.82996,6.72453 0.002,2.97914 0.16521,4.12985 0.90986,6.40855 0.95787,2.93121 2.8884,6.16603 4.9712,8.32981 1.85303,1.92508 3.67854,3.07259 5.92292,3.72311 0.94217,0.27308 1.37934,0.31145 3.43502,0.3015 l 2.35545,-0.0114 2.77113,-0.74394 2.77112,-0.74394 5.19586,-0.037 c 5.53369,-0.0394 6.88549,-0.14866 8.65977,-0.69972 2.40987,-0.74847 4.13547,-1.94453 6.46706,-4.48251 3.56368,-3.87913 5.99609,-7.38256 8.27485,-11.91834 3.52984,-7.02604 5.69927,-14.98333 6.73946,-24.71982 0.63311,-5.92614 -0.16957,-10.61176 -2.64786,-15.45679 -2.605,-5.09274 -6.94665,-9.63549 -13.34482,-13.96294 -2.75568,-1.86382 -6.43247,-3.07063 -15.57392,-8.68182 -4.3109,-2.64611 -9.27211,-4.45664 -10.60045,-5.32948 -1.32834,-0.87283 -4.76176,-2.14928 -5.24624,-2.44474 l 2.83253,-1.49895 0.39592,-0.32425 c 1.65718,-1.35724 4.60441,-3.00271 6.70807,-3.74519 5.37453,-1.89693 12.51848,-1.65406 22.09187,0.75104 17.77524,4.46563 34.94012,15.85995 49.12768,32.61174 0.8714,1.0289 1.99981,2.40274 2.50756,3.05299 l 0.92318,1.18227 -0.19769,1.93504 c -1.26651,12.39691 -5.95788,24.76902 -13.28977,35.04787 -9.75406,13.67456 -23.88822,23.60892 -40.11404,28.19459 -7.40214,2.09196 -15.50966,3.02207 -23.34282,2.67794 z"
       id="path925-3-0-2"
       inkscape:connector-curvature="0"
       sodipodi:nodetypes="cscsscsccccccccccscccccssscsscscccccscscssscc" />
    <ellipse
       style="opacity:1;fill:#ffffff;fill-opacity:1;stroke:none;stroke-width:3.76735997;stroke-linecap:round;stroke-linejoin:round;stroke-miterlimit:4;stroke-dasharray:none"
       id="path973-7-8-6-0-1"
       cx="-188.7934"
       cy="107.95096"
       rx="2"
       ry="1.9999998" />
    <circle
       style="opacity:1;fill:none;fill-opacity:1;stroke:#333333;stroke-width:4;stroke-linecap:round;stroke-linejoin:round;stroke-miterlimit:4;stroke-dasharray:none"
       id="path895-0-8-6-7"
       cx="-206.41382"
       cy="128.68643"
       r="75.79538" />
    <path
       style="opacity:1;fill:#e8c1c6;fill-opacity:1;stroke:#e8c1c6;stroke-width:1.04735422;stroke-linecap:round;stroke-linejoin:round;stroke-miterlimit:4;stroke-dasharray:none"
       d="m -201.9515,133.31478 c -3.31084,-0.26821 -7.36404,-1.55219 -12.74717,-4.0381 -4.52597,-2.09007 -10.8982,-5.64606 -15.13727,-8.44728 -1.4823,-0.97952 -1.90752,-1.14974 -2.74386,-1.09842 -1.23167,0.0756 -2.1857,0.8642 -2.49205,2.05999 -0.25479,0.99454 0.0611,1.90127 1.11015,3.1869 0.32647,0.40008 0.92345,1.1327 1.32661,1.62804 1.7492,2.14908 2.32634,3.3705 1.80466,3.81924 -0.102,0.0877 -0.31744,0.19748 -0.47877,0.24388 -0.45791,0.13172 -1.58125,0.10052 -2.44489,-0.0679 -3.38519,-0.66008 -5.67799,-2.53326 -7.89377,-6.44901 -1.15697,-2.04464 -5.92218,-12.66365 -6.23567,-13.89587 -0.28656,-1.12633 -0.11098,-2.49629 0.48024,-3.74697 1.77295,-3.75059 6.87271,-6.69152 11.18504,-6.45019 1.71177,0.0958 3.32652,0.5089 6.6995,1.71392 2.94369,1.05166 4.05677,1.38263 5.46753,1.62574 1.41312,0.24352 3.16777,0.2016 4.45629,-0.10645 l 0.53174,-0.12712 1.93979,1.22878 c 1.06688,0.67582 2.95629,1.86255 4.1987,2.63717 4.21812,2.62994 8.12835,5.71689 11.49846,9.07749 4.03947,4.02805 6.59805,7.80126 7.24318,10.68172 0.16138,0.72059 0.16076,2.23206 -10e-4,2.82915 -0.36421,1.34296 -1.14917,2.28997 -2.40493,2.90139 -1.36113,0.66272 -3.34885,0.957 -5.36234,0.79389 z m -40.56233,-21.78265 c 1.01688,-0.2338 1.71704,-1.30269 1.52703,-2.33123 -0.31066,-1.68161 -2.39029,-2.23896 -3.52867,-0.94569 -1.27134,1.44432 0.11326,3.71109 2.00164,3.27692 z m 11.39624,-0.32277 c 1.26078,-0.6581 1.47265,-2.39832 0.40628,-3.33699 -0.6228,-0.5482 -1.56655,-0.64739 -2.30996,-0.24277 -0.96157,0.52335 -1.32101,1.78486 -0.78219,2.74525 0.2161,0.38518 0.71299,0.81832 1.08361,0.9446 0.35542,0.12108 1.28125,0.0575 1.60226,-0.11009 z"
       id="path927-4-4-9"
       inkscape:connector-curvature="0" />
    <ellipse
       style="opacity:1;fill:#333333;fill-opacity:1;stroke:none;stroke-width:3.76735997;stroke-linecap:round;stroke-linejoin:round;stroke-miterlimit:4;stroke-dasharray:none"
       id="path973-6-66-4-5"
       cx="-232.03815"
       cy="109.3985"
       rx="2"
       ry="1.9999998" />
    <ellipse
       style="opacity:1;fill:#333333;fill-opacity:1;stroke:none;stroke-width:3.76735997;stroke-linecap:round;stroke-linejoin:round;stroke-miterlimit:4;stroke-dasharray:none"
       id="path973-3-2-7-3-6"
       cx="-242.97815"
       cy="109.55737"
       rx="2"
       ry="1.9999998" />
    <path
       style="fill:none;fill-rule:evenodd;stroke:#333333;stroke-width:4;stroke-linecap:round;stroke-linejoin:round;stroke-miterlimit:4;stroke-dasharray:none;stroke-opacity:1"
       d="m -222.6355,101.54862 c 9.94478,6.45104 27.83964,14.00991 35.04752,18.81583 7.20788,4.80591 15.9359,12.47267 15.72412,24.99124 -1.27344,15.94667 -5.7353,29.71251 -16.51889,39.99991 -3.67626,3.46542 -8.90337,2.69538 -12.29787,2.6742 -3.3945,-0.0212 -4.22393,-0.18506 -8.59013,1.0721 -4.3662,1.25715 -9.07227,1.13447 -13.16821,-4.29559 -4.09594,-5.43006 -5.15438,-11.30914 -3.20422,-18.40134 1.95016,-7.0922 1.65751,-13.97568 -4.79117,-20.25397 -6.44868,-6.27828 -6.04669,-5.73159 -13.25548,-20.50264"
       id="path949-2-1-4-8"
       inkscape:connector-curvature="0"
       sodipodi:nodetypes="czcczzzzzc" />
    <path
       style="fill:none;fill-rule:evenodd;stroke:#333333;stroke-width:0.26458332px;stroke-linecap:butt;stroke-linejoin:miter;stroke-opacity:1"
       d="m -227.15551,101.90224 c 2.17491,0.82503 4.94543,2.06242 6.5219,3.07204"
       id="path3748-9"
       inkscape:connector-curvature="0"
       sodipodi:nodetypes="cc" />
    <path
       style="fill:none;fill-rule:evenodd;stroke:#333333;stroke-width:0.26458332px;stroke-linecap:butt;stroke-linejoin:miter;stroke-opacity:1"
       d="m -227.68249,101.39952 c 2.17491,0.82503 4.94543,2.06241 6.5219,3.07204"
       id="path3748-7-5"
       inkscape:connector-curvature="0"
       sodipodi:nodetypes="cc" />
  </g>
</svg>
